# xmcd CD database file generated by Grip 2.9
# 
# Track frame offsets:
#       182
#       19062
#       37325
#       55075
#       68150
#       80052
#       94680
#       110830
#       126205
#       140677
#       159590
#       177727
#       192920
#       208752
#       224935
#       238390
#       258087
#       279335
# 
# Disc length: 3907 seconds
# 
# Revision: 3
# Processed by: cddbd v1.4b41PL1 Copyright (c) Steve Scherf et al.
# Submitted via: Grip 2.9
# 
DISCID=230f4112
DTITLE=Eric Clapton - Slowhand Blues [CD 1)
DYEAR=1900
DGENRE=
TTITLE0=How Long
TTITLE1=Alabama Women
TTITLE2=Terraplene Blues
TTITLE3=From Four Until Late
TTITLE4=Kidman Blues
TTITLE5=Country Jail Blues
TTITLE6=32-20
TTITLE7=Chicago Breakdown
TTITLE8=Hey Hey
TTITLE9=Walkin' Blues
TTITLE10=Long Distance Call
TTITLE11=Blow Wind Blow
TTITLE12=Key To The Highway
TTITLE13=Tell Me Mama
TTITLE14=Juke
TTITLE15=Blues Leave Me Alone
TTITLE16=Goin' Away Baby
TTITLE17=Coming Home
EXTD=
EXTT0=
EXTT1=
EXTT2=
EXTT3=
EXTT4=
EXTT5=
EXTT6=
EXTT7=
EXTT8=
EXTT9=
EXTT10=
EXTT11=
EXTT12=
EXTT13=
EXTT14=
EXTT15=
EXTT16=
EXTT17=
PLAYORDER=
